<svg xmlns="http://www.w3.org/2000/svg" width="14" height="14" viewBox="0 0 14 14"><defs><style>.a{fill:#fff;}</style></defs><path class="a" d="M14.485,12.063a.782.782,0,0,0-.8,0l-1.245.742a.78.78,0,0,1-.883-.053,20.263,20.263,0,0,1-1.773-1.545A20.264,20.264,0,0,1,8.243,9.439a.78.78,0,0,1-.053-.883l.742-1.245a.785.785,0,0,0,0-.8L7.107,3.39a.788.788,0,0,0-.869-.367,2.582,2.582,0,0,0-1.209.727C3.62,5.159,2.872,7.534,8.169,12.831s7.672,4.549,9.081,3.14a2.592,2.592,0,0,0,.727-1.212.784.784,0,0,0-.365-.866Z" transform="translate(-4 -3)"/></svg>